Coordinates
version=1
nRows=18
nColumns=63
inDegrees=yes

Units are S.I. units (second, meters, Newtons, ...)
If the header above contains a line with 'inDegrees', this indicates whether rotational values are in degrees (yes) or radians (no).

endheader
time	pelvis_tilt	pelvis_list	pelvis_rotation	pelvis_tx	pelvis_ty	pelvis_tz	hip_flexion_r	hip_adduction_r	hip_rotation_r	knee_angle_r	knee_angle_r_beta	ankle_angle_r	subtalar_angle_r	mtp_angle_r	hip_flexion_l	hip_adduction_l	hip_rotation_l	knee_angle_l	knee_angle_l_beta	ankle_angle_l	subtalar_angle_l	mtp_angle_l	L5_S1_Flex_Ext	L5_S1_Lat_Bending	L5_S1_axial_rotation	L4_L5_Flex_Ext	L4_L5_Lat_Bending	L4_L5_axial_rotation	L3_L4_Flex_Ext	L3_L4_Lat_Bending	L3_L4_axial_rotation	L2_L3_Flex_Ext	L2_L3_Lat_Bending	L2_L3_axial_rotation	L1_L2_Flex_Ext	L1_L2_Lat_Bending	L1_L2_axial_rotation	L1_T12_Flex_Ext	L1_T12_Lat_Bending	L1_T12_axial_rotation	Abs_r3	Abs_r2	Abs_r1	Abs_t1	Abs_t2	neck_flexion	neck_bending	neck_rotation	arm_flex_r	arm_add_r	arm_rot_r	elbow_flex_r	pro_sup_r	wrist_flex_r	wrist_dev_r	arm_flex_l	arm_add_l	arm_rot_l	elbow_flex_l	pro_sup_l	wrist_flex_l	wrist_dev_l
7.542373	6.307713	-6.797762	81.411346	0.238581	0.777978	0.718538	6.859712	3.985148	-19.898945	6.956306	0.121410	28.105736	16.151678	0.000000	3.315990	-8.761154	2.483952	1.430343	0.024964	26.946616	-5.192230	0.000000	-0.322723	1.153443	3.637298	-0.599328	1.534079	3.864629	-0.530201	2.804481	3.864629	-0.368840	2.804481	3.182636	-0.299680	2.352101	2.955305	-0.184404	1.786683	2.727974	-2.305176	13.047976	20.229562	0.000000	0.000000	0.650663	-7.755504	-10.455257	-22.884358	-27.527939	364.501983	81.678802	89.072190	-9.752127	-21.854886	20.540183	5.257500	191.462698	0.101071	1.413297	-69.657246	-24.164417
7.559322	6.272042	-6.758468	81.539561	0.238468	0.777771	0.718493	6.848668	3.908364	-20.023132	7.025671	0.122621	28.510743	16.323749	0.000000	3.406428	-8.727513	2.444421	1.617463	0.028230	27.135286	-5.007662	0.000000	-0.322043	1.157057	3.582095	-0.598066	1.538885	3.805976	-0.529085	2.813267	3.805976	-0.368063	2.813267	3.134333	-0.299049	2.359470	2.910452	-0.184015	1.792281	2.686571	-2.300322	13.088855	19.922537	0.000000	0.000000	0.608088	-7.924597	-10.006169	-23.008111	-27.471929	364.356194	81.774059	89.046174	-9.029492	-21.562491	20.629889	5.046231	191.800968	0.101232	1.464543	-69.653436	-24.175309
7.576271	6.211042	-6.717208	81.703285	0.238271	0.777594	0.718494	6.856371	3.788405	-20.210405	7.138088	0.124583	28.929474	16.522097	0.000000	3.537881	-8.665699	2.340882	1.846105	0.032221	27.401292	-4.625246	0.000000	-0.319025	1.160464	3.513711	-0.592462	1.543418	3.733318	-0.524127	2.821553	3.733318	-0.364614	2.821553	3.074497	-0.296247	2.366419	2.854890	-0.182291	1.797560	2.635283	-2.278765	13.127406	19.542207	0.000000	0.000000	0.451815	-8.116809	-9.517753	-23.058531	-27.454193	364.301014	81.855100	89.021729	-8.403608	-21.230035	20.673149	4.862686	192.052595	0.101516	1.503594	-69.650229	-24.182420
7.593220	6.123554	-6.680629	81.896314	0.238002	0.777435	0.718556	6.886513	3.626588	-20.458102	7.288422	0.127207	29.338217	16.739523	0.000000	3.701631	-8.571929	2.377352	2.082558	0.036347	27.664525	-4.344235	0.000000	-0.314598	1.163600	3.436126	-0.584240	1.547588	3.650884	-0.516853	2.829177	3.650884	-0.359554	2.829177	3.006610	-0.292136	2.372813	2.791852	-0.179761	1.802416	2.577095	-2.247142	13.162874	19.110703	0.000000	0.000000	0.220321	-8.310710	-9.001125	-23.028711	-27.474180	364.328293	81.926052	89.002328	-7.907291	-20.875051	20.671532	4.723937	192.196553	0.102027	1.531191	-69.647143	-24.186373
7.610169	5.993159	-6.666491	82.083997	0.237716	0.777275	0.718699	6.965241	3.414137	-20.717191	7.483029	0.130603	29.716355	16.917260	0.000000	3.915761	-8.438133	2.246821	2.334790	0.040750	27.998117	-3.801063	0.000000	-0.308213	1.164411	3.360346	-0.572382	1.548666	3.570368	-0.506363	2.831148	3.570368	-0.352256	2.831148	2.940303	-0.286206	2.374466	2.730281	-0.176113	1.803672	2.520260	-2.201532	13.172047	18.689239	0.000000	0.000000	-0.041735	-8.513335	-8.518323	-22.932620	-27.512064	364.393972	81.993245	88.990846	-7.512385	-20.512358	20.632084	4.637156	192.249108	0.102935	1.548005	-69.645740	-24.186621
7.627119	5.844063	-6.670037	82.287351	0.237403	0.777116	0.718895	7.059955	3.180666	-21.056103	7.672893	0.133917	30.029333	17.126807	0.000000	4.159040	-8.284627	2.230785	2.570065	0.044856	28.314669	-3.360005	0.000000	-0.301232	1.165987	3.284697	-0.559419	1.550763	3.489990	-0.494895	2.834981	3.489990	-0.344278	2.834981	2.874110	-0.279724	2.377680	2.668816	-0.172124	1.806114	2.463523	-2.151672	13.189877	18.268498	0.000000	0.000000	-0.286461	-8.665549	-7.998131	-22.790403	-27.551211	364.451792	82.075070	88.988452	-7.237424	-20.169427	20.560947	4.611329	192.254055	0.104192	1.557751	-69.644424	-24.184345
7.644068	5.676669	-6.693232	82.491518	0.237098	0.776968	0.719116	7.156096	2.942558	-21.365654	7.815753	0.136411	30.230987	17.240325	0.000000	4.429286	-8.117241	2.070196	2.793449	0.048755	28.671595	-2.680486	0.000000	-0.294004	1.168440	3.209216	-0.545995	1.554025	3.409792	-0.483020	2.840944	3.409792	-0.336018	2.840944	2.808064	-0.273012	2.382682	2.607488	-0.167994	1.809913	2.406912	-2.100043	13.217623	17.848698	0.000000	0.000000	-0.487249	-8.738431	-7.391467	-22.590973	-27.597921	364.526600	82.170244	88.993116	-7.069843	-19.848752	20.456328	4.636665	192.250283	0.105633	1.553637	-69.643050	-24.176936
7.661017	5.499411	-6.744442	82.685187	0.236793	0.776820	0.719368	7.260134	2.713126	-21.668216	7.899449	0.137871	30.310503	17.250615	0.000000	4.727112	-7.946821	1.714398	2.996760	0.052303	29.061085	-1.713981	0.000000	-0.285852	1.172474	3.139261	-0.530856	1.559391	3.335464	-0.469626	2.850753	3.335464	-0.326700	2.850753	2.746853	-0.265442	2.390909	2.550649	-0.163336	1.816162	2.354445	-2.041812	13.263261	17.459625	0.000000	0.000000	-0.600029	-8.761996	-6.775898	-22.375547	-27.635601	364.570090	82.292284	89.005016	-7.002222	-19.576098	20.320801	4.722507	192.219420	0.107323	1.545443	-69.641164	-24.169973
7.677966	5.321970	-6.820505	82.862278	0.236494	0.776689	0.719620	7.361083	2.501224	-22.023761	7.910524	0.138065	30.273381	17.241356	0.000000	5.036027	-7.780257	1.203327	3.169292	0.055315	29.462977	-0.531401	0.000000	-0.277128	1.179111	3.070264	-0.514654	1.568218	3.262155	-0.455293	2.866891	3.262155	-0.316729	2.866891	2.686481	-0.257341	2.404443	2.494589	-0.158351	1.826443	2.302698	-1.979496	13.338340	17.075885	0.000000	0.000000	-0.621549	-8.709019	-6.086861	-22.117964	-27.696184	364.665875	82.430052	89.019511	-7.075514	-19.329322	20.154964	4.855496	192.206779	0.109018	1.529257	-69.638943	-24.160005
7.694915	5.149246	-6.915951	83.018845	0.236211	0.776597	0.719850	7.440675	2.320603	-22.368990	7.817217	0.136436	30.103301	17.156676	0.000000	5.328218	-7.620931	0.675992	3.280898	0.057262	29.813611	0.671898	0.000000	-0.268488	1.187942	2.999060	-0.498608	1.579962	3.186501	-0.441098	2.888361	3.186501	-0.306855	2.888361	2.624177	-0.249318	2.422451	2.436736	-0.153414	1.840122	2.249295	-1.917780	13.438234	16.679871	0.000000	0.000000	-0.563170	-8.573946	-5.339744	-21.801632	-27.787671	364.839836	82.561457	89.030960	-7.127809	-19.069542	19.960834	5.022029	192.185779	0.110637	1.505514	-69.637620	-24.148484
7.711864	5.013814	-7.035366	83.167552	0.235918	0.776523	0.720032	7.502450	2.202113	-22.737392	7.629416	0.133158	29.831252	17.037758	0.000000	5.594745	-7.497777	0.447927	3.319750	0.057941	30.009817	1.433536	0.000000	-0.259098	1.202842	2.929267	-0.481171	1.599779	3.112346	-0.425672	2.924589	3.112346	-0.296123	2.924589	2.563108	-0.240598	2.452834	2.380029	-0.148049	1.863202	2.196950	-1.850710	13.606784	16.291702	0.000000	0.000000	-0.394391	-8.416456	-4.581207	-21.509815	-27.890297	365.014039	82.714696	89.040885	-7.203406	-18.828975	19.751459	5.231267	192.172104	0.112052	1.482901	-69.634462	-24.138510
7.728814	4.902237	-7.166514	83.288631	0.235659	0.776494	0.720184	7.538401	2.133252	-23.126414	7.351642	0.128310	29.478063	16.930273	0.000000	5.817752	-7.399271	0.337748	3.286310	0.057357	30.071070	1.962446	0.000000	-0.251345	1.220309	2.864213	-0.466773	1.623010	3.043226	-0.412935	2.967058	3.043226	-0.287262	2.967058	2.506186	-0.233399	2.488453	2.327173	-0.143619	1.890258	2.148160	-1.795334	13.804375	15.929893	0.000000	0.000000	-0.127501	-8.186242	-3.876211	-21.232230	-28.006497	365.232120	82.861081	89.047112	-7.251923	-18.597582	19.547595	5.459219	192.213201	0.113086	1.457211	-69.631696	-24.128079
7.745763	4.816003	-7.307574	83.381282	0.235449	0.776505	0.720309	7.547029	2.117753	-23.471278	6.984928	0.121910	29.055275	16.772369	0.000000	5.993928	-7.326536	0.339117	3.183230	0.055558	29.988748	2.240885	0.000000	-0.245531	1.239654	2.805095	-0.455976	1.648739	2.980414	-0.403383	3.014094	2.980414	-0.280617	3.014094	2.454458	-0.228000	2.527902	2.279140	-0.140296	1.920223	2.103821	-1.753804	14.023210	15.601098	0.000000	0.000000	0.249150	-7.868831	-3.225169	-20.993232	-28.127013	365.483724	82.990867	89.049850	-7.235461	-18.396017	19.358335	5.694232	192.264353	0.113745	1.434899	-69.629305	-24.120677
7.762712	4.738571	-7.458390	83.453524	0.235296	0.776542	0.720416	7.544446	2.130439	-23.833700	6.562456	0.114536	28.614040	16.675949	0.000000	6.140999	-7.266945	0.259604	3.036205	0.052992	29.838500	2.566646	0.000000	-0.240288	1.257954	2.748409	-0.446238	1.673079	2.920185	-0.394769	3.058590	2.920185	-0.274625	3.058590	2.404858	-0.223131	2.565221	2.233083	-0.137300	1.948571	2.061307	-1.716351	14.230231	15.285829	0.000000	0.000000	0.730198	-7.448955	-2.617986	-20.781550	-28.265796	365.820852	83.092897	89.051691	-7.119029	-18.183381	19.185008	5.913682	192.305585	0.114097	1.415475	-69.626952	-24.114775
7.779661	4.673579	-7.606228	83.500075	0.235213	0.776603	0.720494	7.508161	2.182962	-23.970097	6.062792	0.105816	28.125063	16.347426	0.000000	6.241593	-7.218444	0.343165	2.841366	0.049591	29.565659	2.550088	0.000000	-0.235374	1.274637	2.694946	-0.437114	1.695268	2.863380	-0.386697	3.099153	2.863380	-0.269009	3.099153	2.358078	-0.218569	2.599240	2.189644	-0.134493	1.974413	2.021210	-1.681255	14.418952	14.988482	0.000000	0.000000	1.296032	-6.927887	-2.074574	-20.600725	-28.413179	366.250357	83.133571	89.053137	-6.986431	-17.996737	19.029809	6.103352	192.327956	0.114215	1.403561	-69.624842	-24.111148
7.796610	4.612176	-7.742042	83.496445	0.235235	0.776689	0.720537	7.439200	2.264663	-23.819781	5.506860	0.096113	27.610060	15.770033	0.000000	6.294166	-7.176989	0.430207	2.622736	0.045775	29.240786	2.398789	0.000000	-0.230206	1.287856	2.643265	-0.427516	1.712849	2.808469	-0.378206	3.131294	2.808469	-0.263103	3.131294	2.312857	-0.213769	2.626196	2.147653	-0.131540	1.994889	1.982449	-1.644339	14.568487	14.701046	0.000000	0.000000	1.916650	-6.306646	-1.574967	-20.408384	-28.575239	366.793855	83.083208	89.053899	-6.681438	-17.747749	18.879588	6.237004	192.339602	0.114227	1.394422	-69.623629	-24.108092
7.813559	4.560293	-7.861602	83.486325	0.235300	0.776786	0.720553	7.336718	2.371136	-23.411335	4.909883	0.085694	27.094520	14.957569	0.000000	6.321712	-7.147538	0.519675	2.411085	0.042081	28.907288	2.192912	0.000000	-0.223219	1.297724	2.578865	-0.414540	1.725973	2.740044	-0.366726	3.155286	2.740044	-0.255117	3.155286	2.256507	-0.207281	2.646319	2.095328	-0.127547	2.010175	1.934149	-1.594430	14.680114	14.342872	0.000000	0.000000	2.565634	-5.607836	-1.084034	-20.145977	-28.765857	367.518257	82.919216	89.053574	-6.312426	-17.369729	18.715284	6.297057	192.295220	0.114233	1.390252	-69.626317	-24.105509
7.830508	4.521454	-7.954175	83.436214	0.235443	0.776901	0.720525	7.212081	2.493279	-22.859022	4.328890	0.075553	26.640596	14.143081	0.000000	6.295457	-7.130478	0.737868	2.186002	0.038153	28.555187	1.744899	0.000000	-0.214494	1.303803	2.503254	-0.398337	1.734058	2.659708	-0.352392	3.170067	2.659708	-0.245145	3.170067	2.190347	-0.199179	2.658716	2.033894	-0.122562	2.019591	1.877441	-1.532110	14.748883	13.922349	0.000000	0.000000	3.201870	-4.867701	-0.622630	-19.734265	-28.989890	368.549183	82.567534	89.050770	-6.131485	-16.993225	18.515456	6.273731	192.170018	0.114391	1.402180	-69.641195	-24.103292
